<svg xmlns="http://www.w3.org/2000/svg" viewBox="0 0 128 128"><path style="isolation:auto;mix-blend-mode:normal" d="M127.999 63.992a64 63.746 0 0 1-128 0 64 63.746 0 1 1 128 0z" fill="#d54c40" color="#000"/><g fill="#efefef" transform="translate(-.75 .225) scale(1.0117)"><path d="M45.89 47.596L40.946 52.5l-1.608 1.592-2.392 2.367a19.805 19.805 0 0 0 0 28.277l.057.057-8 7.918c-1.583 1.566-1.583 4.09 0 5.656s4.132 1.566 5.715 0l8.004-7.92c7.92 7.773 20.617 7.758 28.513-.055l2.395-2.37 1.605-1.59 4.947-4.903-14.287-14.14-5.715-5.654z"/><rect transform="scale(1.00524 .99474) rotate(-45)" ry="4.02" height="60.3" width="8.04" y="60.042" x="2.639"/><path d="M81.12 28.354a4.06 4.06 0 0 0-5.712 0l-16.91 16.755 5.722 5.65 16.902-16.751a3.96 3.96 0 0 0-.002-5.655zm18.361 18.178a4.063 4.063 0 0 0-5.715 0l-16.891 16.74 5.72 5.65 16.888-16.736a3.96 3.96 0 0 0-.002-5.655z"/></g><path opacity=".25" style="isolation:auto;mix-blend-mode:normal" d="M2.45 47h123.094zm123.094 0h-.143a62.976 62.976 0 0 1 2.064 15.864c0 34.912-28.415 63.213-63.465 63.213-35.052 0-63.465-28.3-63.465-63.213a62.98 62.98 0 0 1 2.112-15.863H2.45A63.335 63.335 0 0 0 .035 64.099C.056 99.27 28.686 127.77 63.997 127.77c35.309 0 63.939-28.5 63.961-63.672A63.476 63.476 0 0 0 125.542 47z" color="#000"/></svg>