<svg xmlns="http://www.w3.org/2000/svg" height="106.666" width="106.666" viewBox="0 0 100 100"><defs><linearGradient id="c" y2="127.51" gradientUnits="userSpaceOnUse" y1=".941" gradientTransform="translate(20.174 35.744) scale(.0509)" x2="63.653" x1="63.653"><stop stop-color="#dd4c40" offset="0"/><stop stop-color="#b53120" offset="1"/></linearGradient><linearGradient id="b" y2="54.291" gradientUnits="userSpaceOnUse" y1="128.61" gradientTransform="translate(20.174 35.744) scale(.0509)" x2="48.127" x1="48.127"><stop stop-color="#802218" offset="0"/><stop stop-color="#db4b3e" offset="1"/></linearGradient><clipPath id="a"><circle stroke-width="2.881" stroke-linecap="square" cy="47.681" stroke="#646464" cx="30.955" r="38.516" fill="gray"/></clipPath></defs><g clip-path="url(#a)" transform="translate(11.265 -9.665) scale(1.2513)"><path d="M71.809-14a8.542 8.542 0 0 1 8.543 8.542l-.002 145.22a8.542 8.542 0 0 1-8.542 8.543h-191.53a8.542 8.542 0 0 1-8.543-8.543V-5.458A8.542 8.542 0 0 1-119.722-14z" fill="#e8e8e8"/><path d="M70.811 139.76c0 .786-.64 1.425-1.424 1.425h-184.5a1.425 1.425 0 0 1-1.424-1.425V-5.46c0-.784.638-1.423 1.424-1.423h184.5c.785 0 1.424.64 1.424 1.423l-.003 145.22z" stroke="#c9c9c9" stroke-miterlimit="10" stroke-width=".621" fill="#fff"/><path fill="#9e0008" d="M-118.11 133.27H71v8.374h-189.11z"/><path fill="#afafaf" d="M-118.11 117.52H71v15.752h-189.11z"/><path fill="#f4f4f4" d="M-118.11 38.175H71v79.34h-189.11z"/><path fill="#c9c9c9" d="M-118.11 20.546H71v17.63h-189.11z"/><path fill="#9e0008" d="M-118.11 12.238H71v8.307h-189.11z"/><path fill="#ca0002" d="M-118.11-7.159H71v19.398h-189.11z"/><path fill="#fff" d="M-13.737-.095h35.87v5.909h-35.87z"/><path fill="#c9c9c9" d="M22.133-.095h12.282v5.98H22.133z"/><g stroke-linejoin="round" stroke="#fff" stroke-linecap="round" stroke-miterlimit="10" fill="none"><path stroke-width=".392" d="M54.583-7.158v7.063"/><path d="M50.931-2.356H43.09m-147.92 18.779h-7.83m24.952 0h-7.84m24.958 0h-7.84m24.957 0h-7.84m24.959 0h-7.841m24.958 0h-7.841m24.958 0h-7.842m24.961 0H7.157m24.958 0h-7.84m24.958 0h-7.84m24.957 0h-7.839m7.155-18.779h-7.841" stroke-width="2.352"/></g><text font-size="13.144" y="34.52" x="-73.467" font-family="Lato-Black" fill="#fff">TODAYS NEWS</text><g stroke-linejoin="round" stroke-linecap="round" stroke-miterlimit="10" fill="none"><path stroke-width="1.176" stroke="#fff" d="M-83.887 29.362h-24.853m167.926 0H34.329"/><g stroke="#919191"><path d="M-109.36 47.899H-4.79m-43.427 44.214H-4.79m-104.93 0h43.287m87.181 0h42.228" stroke-width="3.92"/><path d="M-109.36 58.723H-4.79m-104.57 4.116H-4.79m-104.57 4.116H-4.79m-104.57 4.117H-4.79m-104.57 4.115H-4.79m-104.57 4.116h38.771" stroke-width="1.176"/></g></g><path fill="#1b9ecc" d="M19.26 83.386v-6.105L64.9 54.297v29.09z"/><path fill="#29aae1" d="M19.26 77.28V43.253H64.9v11.045z"/><path d="M24.458 77.724a2.24 2.24 0 0 0 2.239 2.24h31.247a2.239 2.239 0 0 0 2.24-2.24v-2.2a2.24 2.24 0 0 0-2.24-2.24H26.697a2.241 2.241 0 0 0-2.239 2.24v2.2z" fill="#fff"/><text font-size="4.995" y="78.479" x="26.716" font-family="sans-serif" fill="#29aae1" word-spacing="0" letter-spacing="0"><tspan y="78.479" x="26.716">CLICK HERE!</tspan></text><path style="isolation:auto;mix-blend-mode:normal" d="M21.109 34.753a1.84 1.84 0 0 0-1.845 1.844v6.656H41.19v-6.656a1.84 1.84 0 0 0-1.844-1.844z" fill="#363636" color="#000"/><path style="isolation:auto;mix-blend-mode:normal" d="M26.695 39.005a3.258 3.257 0 0 1-6.515 0 3.258 3.257 0 1 1 6.515 0z" stroke="url(#b)" stroke-width=".103" fill="url(#c)" color="#000"/><g fill="#efefef"><path d="M22.499 38.205l-.255.254-.082.082-.124.122a1.027 1.027 0 0 0 0 1.462l.004.003-.412.41c-.082.08-.082.211 0 .292s.212.081.294 0l.412-.41a1.043 1.043 0 0 0 1.468-.003l.124-.122.082-.082.255-.254-.736-.73-.294-.293zm.08-.519a.209.209 0 0 1 .294 0l1.913 1.9a.205.205 0 0 1 0 .293.209.209 0 0 1-.294 0l-1.913-1.9a.205.205 0 0 1 0-.293z"/><path d="M24.313 37.214a.208.208 0 0 0-.294 0l-.87.866.294.292.87-.866a.205.205 0 0 0 0-.292zm.951.935a.209.209 0 0 0-.294 0l-.87.865.294.293.87-.866a.205.205 0 0 0 0-.292z"/></g><text font-size="4.495" y="40.677" x="27.668" font-family="sans-serif" fill="#fff" word-spacing="0" letter-spacing="0"><tspan y="40.677" x="27.668">Close</tspan></text><g stroke-linejoin="round" stroke="#919191" stroke-linecap="round" stroke-miterlimit="10" fill="none"><path d="M19.943 100.8h42.228m-42.228 3.34h42.228m-42.228 3.35h42.228m-42.228 3.34h42.228" stroke-width="1.176"/><path d="M-49.137 100.8h44.348m-44.348 3.34h44.348m-44.348 3.35h44.348m-44.348 3.34h44.348M-110.49 100.8h44.352m-44.352 3.34h44.352m-44.352 3.35h44.352m-44.352 3.34h44.352" stroke-width="1.205"/></g></g><circle stroke-width="3.605" stroke-linecap="square" cy="50" stroke="#646464" cx="50" r="48.197" fill="none"/><text style="text-align:center" font-size="7.5" y="62.547" x="63.987" font-family="sans-serif" fill="#fff" word-spacing="0" letter-spacing="0" text-anchor="middle"><tspan y="62.547" x="63.987">Flash</tspan><tspan y="70.947" x="63.987">Content</tspan></text></svg>