<svg xmlns="http://www.w3.org/2000/svg" height="106.666" viewBox="0 0 100 100" width="106.666"><defs><clipPath id="a"><circle r="48.197" cx="50" stroke="#646464" cy="50" stroke-linecap="square" stroke-width="3.605" fill="none"/></clipPath></defs><g clip-path="url(#a)"><path d="M-111.71 19.178H95.21a.39.39 0 0 1 .39.39v17.864a.39.39 0 0 1-.39.39h-206.92a.388.388 0 0 1-.39-.39V19.567c0-.215.174-.389.39-.389z" stroke="#b3b3b3" stroke-linecap="square" stroke-width=".563" fill="#ececec"/><rect ry="1.861" height="12.64" width="12.64" y="22.18" x="62.77" fill="#ccc"/><path style="isolation:auto;mix-blend-mode:normal" fill="#d54c40" d="M73.58 28.499a4.49 4.471 0 0 1-8.98 0 4.49 4.471 0 1 1 8.98 0z" color="#000"/><g fill="#efefef" transform="translate(64.548 24.026) scale(.07096)"><path d="M45.89 47.596L40.946 52.5l-1.608 1.592-2.392 2.367a19.805 19.805 0 0 0 0 28.277l.057.057-8 7.918c-1.583 1.566-1.583 4.09 0 5.656s4.132 1.566 5.715 0l8.004-7.92c7.92 7.773 20.617 7.758 28.513-.055l2.395-2.37 1.605-1.59 4.947-4.903-14.287-14.14-5.715-5.654z"/><rect transform="scale(1.00524 .99474) rotate(-45)" ry="4.02" height="60.3" width="8.04" y="60.042" x="2.639"/><path d="M81.12 28.354a4.06 4.06 0 0 0-5.712 0l-16.91 16.755 5.722 5.65 16.902-16.751a3.96 3.96 0 0 0-.002-5.655zm18.361 18.178a4.063 4.063 0 0 0-5.715 0l-16.891 16.74 5.72 5.65 16.888-16.736a3.96 3.96 0 0 0-.002-5.655z"/></g><path opacity=".25" style="isolation:auto;mix-blend-mode:normal" d="M64.772 27.307h8.634zm8.634 0h-.01c.096.363.144.737.145 1.112 0 2.45-1.993 4.434-4.452 4.434a4.442 4.442 0 0 1-4.45-4.434c.001-.375.05-.749.147-1.112h-.013c-.111.39-.168.794-.17 1.2.002 2.466 2.01 4.465 4.486 4.465 2.477 0 4.485-2 4.487-4.466a4.452 4.452 0 0 0-.17-1.2z" color="#000"/><g fill="#4d4d4d"><circle cy="25.9" cx="86.532" r="1"/><circle cy="28.499" cx="86.532" r="1"/><circle cy="31.099" cx="86.532" r="1"/></g><path d="M70.021 35.922l-3.67 3.67h-110.02a1.89 1.89 0 0 0-1.894 1.893v79.746a1.89 1.89 0 0 0 1.894 1.894h118.97a1.89 1.89 0 0 0 1.894-1.894V41.485a1.89 1.89 0 0 0-1.894-1.893h-1.603z" stroke="#b3b3b3" stroke-linecap="square" stroke-width=".609" fill="#fff"/><path d="M-112.24-.55h211c.216 0 .39.173.39.389v18.669a.39.39 0 0 1-.39.39h-211a.388.388 0 0 1-.39-.39V-.161a.39.39 0 0 1 .39-.39z" fill="#6490e9"/><path stroke="#b3b3b3" stroke-width=".436" fill="#fff" d="M-108.79 21.367H57.78c1.065 0 1.922.857 1.922 1.923v10.42a1.918 1.918 0 0 1-1.922 1.922h-166.57a1.918 1.918 0 0 1-1.923-1.923V23.29c0-1.065.858-1.922 1.923-1.922z"/><text font-size="6" y="53.026" x="-38.678" font-family="sans-serif" fill="#666" word-spacing="0" letter-spacing="0"><tspan y="111.346" x="-38.678"><tspan x="-38.678">Settings</tspan></tspan></text></g><circle r="48.197" cx="50" stroke="#646464" cy="50" stroke-linecap="square" stroke-width="3.605" fill="none"/></svg>