<svg xmlns="http://www.w3.org/2000/svg" height="128" viewBox="0 0 128 128.00001" width="128"><path style="isolation:auto;mix-blend-mode:normal" d="M125.1 64.495a61.102 61.102 0 0 1-122.2 0 61.102 61.102 0 1 1 122.2 0z" fill-opacity=".15" stroke="#f2f2f2" stroke-width="5.796" color="#000"/><g fill="#efefef" transform="translate(0 .468)"><path d="M46.508 49.061l-4.776 4.756-1.552 1.544-2.311 2.295a19.26 19.26 0 0 0 0 27.422l.055.055-7.727 7.679c-1.53 1.519-1.53 3.965 0 5.485s3.99 1.519 5.52 0l7.731-7.681c7.65 7.539 19.914 7.523 27.541-.053l2.313-2.298 1.55-1.542 4.778-4.756-13.8-13.712-5.52-5.482z"/><rect transform="scale(1.00326 .99674) rotate(-45)" ry="3.891" height="58.36" width="7.781" y="61.708" x="2.031"/><path d="M80.536 30.401a3.91 3.91 0 0 0-5.518 0L58.688 46.65l5.526 5.48 16.325-16.245a3.851 3.851 0 0 0-.002-5.483zm17.736 17.628a3.913 3.913 0 0 0-5.52 0L76.437 64.263l5.526 5.48 16.31-16.23a3.851 3.851 0 0 0 0-5.484z"/></g></svg>