<svg version="1.1" xmlns="http://www.w3.org/2000/svg" xmlns:xlink="http://www.w3.org/1999/xlink" width="32" height="32" viewBox="0 0 32 32">
<path d="M23.257 21.777l2.854 5.818-2.618 1.279-2.87-5.874-3.55 3.072v-13.292l10.729 8.234-4.545 0.762zM25.656 13.854h2.146v-4.292h-2.146v4.292zM25.656 16.664l2.146 1.648v-2.311h-2.146v0.664zM14.927 26.073v-1.49h-4.292v2.146h4.292v-0.656zM6.344 22.438h-2.146v4.292h4.292v-2.146h-2.146v-2.146zM4.198 7.417h2.146v-2.146h2.146v-2.146h-4.292v4.292zM6.344 16h-2.146v4.292h2.146v-4.292zM14.927 3.125h-4.292v2.146h4.292v-2.146zM21.365 3.125h-4.292v2.146h4.292v-2.146zM25.656 7.417h2.146v-4.292h-4.292v2.146h2.146v2.146zM6.344 9.563h-2.146v4.292h2.146v-4.292z"></path>
</svg>
